<svg xmlns="http://www.w3.org/2000/svg" width="500" height="500" viewBox="0 0 500 500">
  <g fill="black">
    <!-- cluster top-left area -->
    <circle cx="42" cy="58" r="11"/>
    <path d="M42 49 L38 45 M42 49 L46 45" stroke="black" stroke-width="2" fill="none"/>

    <ellipse cx="115" cy="32" rx="8" ry="14" transform="rotate(35 115 32)"/>
    <line x1="115" y1="18" x2="115" y2="46" stroke="black" stroke-width="1.5"/>

    <rect x="28" y="145" width="16" height="20" rx="3"/>
    <rect x="24" y="140" width="24" height="5" rx="2"/>

    <polygon points="88,180 95,205 81,205"/>
    <path d="M88 178 L85 172 M88 178 L91 172" stroke="black" stroke-width="1.5" fill="none"/>

    <!-- scattered mid-left -->
    <circle cx="165" cy="210" r="9"/>
    <path d="M165 203 L162 199 M165 203 L168 199" stroke="black" stroke-width="1.8" fill="none"/>

    <ellipse cx="75" cy="265" rx="7" ry="12" transform="rotate(-15 75 265)"/>
    <line x1="75" y1="253" x2="75" y2="277" stroke="black" stroke-width="1.2"/>

    <rect x="130" y="310" width="14" height="18" rx="2.5"/>
    <rect x="127" y="306" width="20" height="4" rx="2"/>

    <!-- center-ish scattered -->
    <circle cx="260" cy="85" r="10"/>
    <path d="M260 77 L256 73 M260 77 L264 73" stroke="black" stroke-width="2" fill="none"/>

    <ellipse cx="340" cy="140" rx="9" ry="15" transform="rotate(25 340 140)"/>
    <line x1="340" y1="125" x2="340" y2="155" stroke="black" stroke-width="1.5"/>

    <polygon points="210,250 217,275 203,275"/>
    <path d="M210 248 L207 242 M210 248 L213 242" stroke="black" stroke-width="1.5" fill="none"/>

    <rect x="285" cy="195" width="15" height="19" rx="2.5"/>
    <rect x="282" y="191" width="21" height="4" rx="2"/>

    <!-- herb sprig center -->
    <circle cx="250" cy="250" r="4"/>
    <circle cx="258" cy="244" r="3"/>
    <circle cx="242" cy="256" r="3"/>

    <!-- right side scattered -->
    <circle cx="420" cy="65" r="12"/>
    <path d="M420 55 L416 51 M420 55 L424 51" stroke="black" stroke-width="2" fill="none"/>

    <ellipse cx="470" cy="180" rx="8" ry="13" transform="rotate(40 470 180)"/>
    <line x1="470" y1="167" x2="470" y2="193" stroke="black" stroke-width="1.5"/>

    <rect x="395" y="260" width="13" height="17" rx="2"/>
    <rect x="392" y="257" width="19" height="4" rx="2"/>

    <polygon points="450,330 457,355 443,355"/>
    <path d="M450 328 L447 322 M450 328 L453 322" stroke="black" stroke-width="1.5" fill="none"/>

    <!-- bottom area scattered -->
    <circle cx="180" cy="380" r="11"/>
    <path d="M180 371 L176 367 M180 371 L184 367" stroke="black" stroke-width="2" fill="none"/>

    <ellipse cx="310" cy="430" rx="8" ry="14" transform="rotate(-25 310 430)"/>
    <line x1="310" y1="416" x2="310" y2="444" stroke="black" stroke-width="1.5"/>

    <rect x="60" y="420" width="15" height="19" rx="2.5"/>
    <rect x="57" y="416" width="21" height="4" rx="2"/>

    <polygon points="410,420 417,445 403,445"/>
    <path d="M410 418 L407 412 M410 418 L413 412" stroke="black" stroke-width="1.5" fill="none"/>

    <circle cx="465" cy="465" r="9"/>
    <path d="M465 458 L462 454 M465 458 L468 454" stroke="black" stroke-width="1.8" fill="none"/>

    <!-- extra tiny fillers -->
    <circle cx="220" cy="120" r="3"/>
    <circle cx="380" cy="310" r="2.5"/>
    <circle cx="95" cy="355" r="3"/>
    <circle cx="355" cy="65" r="2.5"/>
  </g>
</svg>
